<?xml version="1.0" encoding="utf-8"?>
<!-- Generator: Adobe Illustrator 18.0.0, SVG Export Plug-In . SVG Version: 6.00 Build 0)  -->
<!DOCTYPE svg PUBLIC "-//W3C//DTD SVG 1.1//EN" "http://www.w3.org/Graphics/SVG/1.1/DTD/svg11.dtd">
<svg style="max-width:300px;max-height:300px;" version="1.1" id="Layer_1" xmlns="http://www.w3.org/2000/svg" xmlns:xlink="http://www.w3.org/1999/xlink" x="0px" y="0px"
	 viewBox="0 0 612 792" enable-background="new 0 0 612 792" xml:space="preserve">
<polygon fill="#464646" points="306,163.4 306,163.4 306,163.4 78.1,244.7 112.9,546.1 306,653 306,653 306,653 499.1,546.1 
	533.9,244.7 "/>
<polygon fill="#343434" points="306,163.4 306,217.8 306,217.5 306,465.5 306,465.5 306,653 306,653 499.1,546.1 533.9,244.7 "/>
<g>
	<path fill="#FFFFFF" d="M308.4,420.4l-26.1,76.2h-0.1l-20.2,58.2c1.4,0.4,2.8,0.7,4.2,1.1c0.1,0,0.2,0,0.2,0
		c12.6,3.3,25.8,5.2,39.4,5.2c6.8,0,13.4-0.4,19.8-1.4c8.9-1.1,17.5-3,25.9-5.7l0,0c2.1-0.6,4.1-1.4,6.2-2.1
		c-2.2-4.8-7-15.4-7.3-15.9L308.4,420.4z"/>
	<path fill="#FFFFFF" d="M166.4,348.1c-8,18-13.4,40.2-13.4,60.2c0,5,0.2,10,0.7,15c5.5,56.7,42.1,104.4,92.5,125.8
		c2.1,0.9,4.2,1.8,6.4,2.5l-74.1-203.4C172.1,347.9,170.9,348.3,166.4,348.1z"/>
	<path fill="#FFFFFF" d="M444.8,344c-3.4-7.4-7.5-14.5-12-21.2c-1.3-1.9-2.7-3.8-4.1-5.7c-17.1-22.9-40.5-41-67.6-51.5
		c-17.1-6.7-35.7-10.4-55.1-10.4c-48,0-91,22.3-119,57.1c-5.2,6.4-9.8,13.2-13.9,20.4c11.3,0.1,25.3,0.1,26.9,0.1
		c14.4,0,36.7-1.8,36.7-1.8c7.5-0.5,8.3,10.4,0.9,11.3c0,0-7.5,0.9-15.8,1.3l50.1,149l30.1-90.3l-21.4-58.6
		c-7.5-0.4-14.4-1.3-14.4-1.3c-7.5-0.4-6.5-11.8,0.8-11.3c0,0,22.7,1.8,36.3,1.8c14.4,0,36.7-1.8,36.7-1.8
		c7.4-0.5,8.4,10.4,0.9,11.3c0,0-7.4,0.9-15.7,1.3l49.6,147.9l13.8-45.9c6.9-17.8,10.4-32.6,10.4-44.4c0-17-6.1-28.8-11.4-37.9
		c-6.9-11.4-13.5-21-13.5-32.2c0-12.7,9.6-24.5,23.1-24.5c0.6,0,1.2,0,1.8,0c20.9-0.6,27.7,20.2,28.6,34.3c0,0,0,0.3,0,0.5
		c0.3,5.7,0.1,10,0.1,15c0,13.9-2.6,29.6-10.4,49.2L386,495.6L368.2,548c1.4-0.6,2.8-1.3,4.2-2c45.2-21.8,78.1-65.3,85-116.9
		c1-6.8,1.5-13.7,1.5-20.7C459,385.4,453.9,363.5,444.8,344z"/>
</g>
</svg>
